<?xml version="1.0" standalone="no"?><!DOCTYPE svg PUBLIC "-//W3C//DTD SVG 1.1//EN" "http://www.w3.org/Graphics/SVG/1.1/DTD/svg11.dtd"><svg t="1744867123751" class="icon" viewBox="0 0 1024 1024" version="1.1" xmlns="http://www.w3.org/2000/svg" p-id="2373" xmlns:xlink="http://www.w3.org/1999/xlink" width="200" height="200"><path d="M421.888 210.944c-117.76 18.944-202.752 119.296-202.752 238.08 0 10.24 1.024 20.992 2.56 33.792 1.536 10.24 10.24 17.408 19.968 17.408h2.56c10.752-1.536 18.944-11.776 17.408-23.04s-2.048-19.968-2.048-28.16c0-99.328 71.168-182.784 168.96-198.656 10.752-2.048 18.432-12.288 16.896-23.04-2.048-10.24-12.288-17.92-23.552-16.384z m499.2 675.84l-228.864-228.864c53.76-61.44 83.456-139.264 83.456-221.696 0-186.368-151.552-337.92-337.92-337.92s-337.92 151.552-337.92 337.92 151.552 337.92 337.92 337.92c81.92 0 159.232-29.184 220.16-81.92l228.864 228.864c4.608 4.608 10.752 7.168 16.896 7.168 6.144 0 12.288-2.56 16.896-7.168 9.728-9.216 9.728-24.576 0.512-34.304z m-278.016-244.736c-54.784 54.784-128 84.992-205.312 84.992-160.256 0-290.304-130.048-290.304-290.304s130.048-290.304 290.304-290.304 290.304 130.048 290.304 290.304c0 77.312-30.208 150.016-84.992 205.312z" fill="#515151" p-id="2374"></path></svg>